<svg version="1.1" id="Layer_1" xmlns="http://www.w3.org/2000/svg" x="0" y="0" viewBox="0 0 1400 980" xml:space="preserve"><path fill="#9DDCF9" d="M0 0h1400v980H0z"/><path fill="#52BA66" d="M1246.1 624.9h-131 1c-17.4-.6-31.4-15.7-31.4-34.2 0-18.5 14-33.6 31.4-34.2h-1 39.1c21.8 0 39.5-18.7 39.5-41.7 0-23-17.7-41.7-39.5-41.7h-125.3c-4.5-1.8-7.7-6.5-7.7-11.9 0-7 5.4-12.7 12-12.7h-2.9c20.9 0 37.8-17.9 37.8-39.9 0-19.7-13.6-36.1-31.4-39.3l-156.3-.3c-23.4 0-42.4-17.7-42.4-39.5s19-39.5 42.4-39.5h2.5c20.8 0 37.7-13.1 37.7-29.3 0-16.2-16.9-29.3-37.7-29.3H412.8c-20.8 0-37.7 13.1-37.7 29.3 0 16.2 16.9 29.3 37.7 29.3H294c-28.2 0-51.1 17.7-51.1 39.6 0 18.7 16.7 34.3 39.1 38.5 3.2.7 6.5 1 9.9 1.1h92.3c23.5 0 42.5 17.7 42.5 39.6 0 21.9-19 39.6-42.5 39.6H236.1c-28.2 0-51.1 24.2-51.1 54 0 25.5 16.7 46.8 39.2 52.5 3.3 1 6.8 1.5 10.5 1.5h55.7c12.4 0 22.5 10.6 22.5 23.7s-10.1 23.7-22.5 23.7v.3H176.7c-31.2 0-56.5 26.7-56.5 59.7s25.3 59.7 56.5 59.7l58.1.2c-2.2 4.8-3.5 10.2-3.5 15.8 0 21 17 38.1 38.1 38.1h815.9c21 0 38.1-17 38.1-38.1 0-5.7-1.3-11.1-3.5-16h126.4c25.8 0 46.7-22.1 46.7-49.4s-21-49.2-46.9-49.2z"/><path fill="#2A914A" d="M779.4 384.8h-85.3.4c-7.4-.2-13.3-5.2-13.3-11.4s5.9-11.3 13.3-11.4h-.4 34.1c11 0 19.9-7.4 19.9-16.5s-8.9-16.5-19.9-16.5H470c-11 0-19.9 7.4-19.9 16.5S459 362 470 362h34.1-.4c7.4.2 13.3 5.2 13.3 11.4s-5.9 11.3-13.3 11.4h4.2c-8.7.5-15.6 6.5-15.6 13.9s6.9 13.4 15.6 13.9h271.5c8.7-.5 15.6-6.5 15.6-13.9s-6.9-13.4-15.6-13.9z"/><path fill="#38AE5A" d="M962.3 516.7H466.6c-17.4 0-31.6 11.8-31.6 26.2 0 14.5 14.1 26.2 31.6 26.2h72.8c17.4 0 31.6 11.8 31.6 26.2 0 13-11.3 23.7-26.2 25.8H352.4c-17.4 0-31.6 11.8-31.6 26.2 0 14.5 14.1 26.2 31.6 26.2h60.1c-15.6 1.6-27.6 12.6-27.6 26 0 14.5 14.1 26.2 31.6 26.2h375.7c17.4 0 31.6-11.8 31.6-26.2 0-13.4-12-24.4-27.6-26h110.4c17.4 0 31.6-11.8 31.6-26.2 0-14.5-14.1-26.2-31.6-26.2H786.8c-14.9-2.1-26.2-12.9-26.2-25.8 0-14.5 14.1-26.2 31.6-26.2h170.2c17.4 0 31.6-11.8 31.6-26.2-.2-14.4-14.3-26.2-31.7-26.2z"/><path fill="#A4A6B7" d="M614.1 260.5l12.7-21.2c.7-1.2 2.2-1.5 3.3-.8 1.1.7 1.5 2.2.8 3.3l-9.8 16.3 8.5-2.1c1.3-.3 2.6.5 2.9 1.8.3 1.3-.5 2.6-1.8 2.9l-14.1 3.5c-.9.2-1.9-.1-2.5-.9-.4-.9-.5-2 0-2.8z"/><path fill="#A4A6B7" d="M633.4 231.9c-9.2 7.4-12.6 18.4-7.6 24.8 5 6.3 16.6 5.5 25.8-1.9s12.6-18.4 7.6-24.8c-5-6.3-16.6-5.4-25.8 1.9z"/><path fill="#868C90" d="M657.8 228.6c-5.7-3.3-14.9-2.1-22.7 3.7-9.5 7-13.3 18-8.5 24.5 1.1 1.5 2.5 2.6 4.2 3.4-2-.7-3.7-1.8-5-3.4-5-6.3-1.6-17.4 7.6-24.8 8.5-6.8 18.8-8.1 24.4-3.4z"/><path fill="#C2C6CA" d="M635.5 234c-7.9 6.4-10.9 16-6.8 21.3 4.1 5.3 13.9 4.5 21.7-2 7.9-6.4 10.9-16 6.8-21.3-4.1-5.3-13.8-4.4-21.7 2z"/><path fill="#868C90" d="M649.8 252.5c7.6-6.2 10.7-15.3 7.1-20.8l.3.3c4.1 5.3 1.1 14.9-6.8 21.3s-17.6 7.3-21.7 2c-.1-.2-.3-.4-.4-.6 4.4 5 13.8 4.1 21.5-2.2z"/><path fill="#A4A6B7" d="M584.8 283.8c.4.6 1.2.7 1.8.3l30.3-21.3c.6-.4.7-1.2.3-1.8-.4-.6-1.2-.7-1.8-.3L585.1 282c-.2.1-.3.2-.4.4-.2.4-.2 1 .1 1.4z"/><path fill="#F7941E" d="M586.6 284.1l12.1-8.5c-.2-.6-.7-1.4-1.7-2l-11.9 8.4c-.2.1-.3.2-.4.4-.2.4-.2 1 .1 1.4.4.6 1.2.7 1.8.3z"/><path fill="#C4B8B3" d="M564.9 386.7s-8.2-2.6-9.2 1.3c-1 3.8 6.2 2.6 6.2 2.6l3-3.9z"/><path fill="#FFD779" d="M556.9 390l-12-93.8c-.2-1.8 1-3.4 2.8-3.6 1.8-.2 3.4 1 3.6 2.8l12 93.8c.2 1.8-1 3.4-2.8 3.6h-.4c-1.6 0-3-1.1-3.2-2.8zm30.5-47.3l-2.3-5-7.2-16.6-16.4-31.2c-.8-1.6-.2-3.5 1.4-4.4 1.6-.8 3.5-.2 4.4 1.4l16.4 31.3.1.2L591 335l2.3 4.9c.8 1.6 0 3.5-1.6 4.3-.4.2-.9.3-1.4.3-1.1 0-2.3-.7-2.9-1.8zm4.1-68.2l-14-12.4c-.4-.4-.8-.9-.9-1.4l-3.1-9.7c-.5-1.7.4-3.5 2.1-4.1 1.7-.5 3.5.4 4.1 2.1l2.8 8.9 13.4 11.8c1.3 1.2 1.5 3.2.3 4.6-.6.7-1.5 1.1-2.4 1.1-.9-.1-1.7-.3-2.3-.9z"/><path fill="#F7941E" d="M570.9 221.8s4.9.8 5.9 3.5c1.1 2.7 6.2 22.1 6.2 22.1s-6.7 9.2-12.4 6.5c-5.7-2.7.3-32.1.3-32.1zM556 298.9l13.2 19.1s8.9 1.4 15.9-11.9l-8.6-17.3-20.5 10.1z"/><path fill="#E0761D" d="M528.5 242.7s12.9-17.4 33.6-20.6c20.6-3.2 13.3 9.3 13.3 15 0 5.7-5.7 41.3 1.2 50.6 6.9 9.3-31.5 26.7-42.5 13.8-10.8-13.1-12.8-46.7-5.6-58.8z"/><path fill="#C55C18" d="M537.6 294.3s6.1 2.8 16.6.4c0 0-13.3.4-16-3.8-2.6-4.2-3.4-19-2.4-20.6 1-1.6 3.8-18.8 3.8-18.8s3.4-9.5 9.5-10.3c0 0 3.4 4.2 8.5 2.2s0-6.9 0-6.9-5.7-3.6-9.1-4.7c-2.5-.7-3.3-2.5-3.5-3.4-10.4 6.2-16.5 14.3-16.5 14.3-7.3 12.1-5.3 45.7 5.7 58.6 3.6 4.3 10.3 5.2 17.4 4.2 3-1.5 5.7-3 5.7-3s-16.4-1.7-19.7-8.2z"/><path fill="#F7941E" d="M533.8 301.8l12.5 31.4s3.5 4.6 9.7 3.5c6.2-1.1 10.5-11.3 10.5-11.3l-1.6-23.5-31.1-.1z"/><path fill="#DE7B28" d="M546.3 333.2s3.5 4.6 9.7 3.5c-7.7-3.1-12.8-28.9-13.9-34.9h-8.3l12.5 31.4z"/><path fill="#FFD779" d="M593.2 284.7l-44.5-6.5c-.9-.1-1.7-.6-2.2-1.3L527.9 251c-1-1.5-.7-3.5.7-4.5 1.5-1 3.5-.7 4.5.7l17.8 24.8 43.1 6.3c1.8.3 3 1.9 2.7 3.7-.2 1.6-1.6 2.8-3.2 2.8 0 0-.2 0-.3-.1z"/><path fill="#F7941E" d="M534.5 277.9s9.7-1.9 15.4-10.8c0 0-11.3-21.6-16.2-23.5-4.9-1.9-11.6 3.2-7.5 14.6 4 11.3 8.3 19.7 8.3 19.7z"/><path fill="#C4B8B3" d="M588.3 347.6s1.2 3.6 3 5.2 4.3 1.3 5.8-.4c1.6-1.7.2-4.8-1.2-8.2-1.3-3.5-7.6 3.4-7.6 3.4z"/><path fill="#BE1E2D" d="M587.7 340.3l-2-2.1 5.5-2.2.4 2.5s.2.1.3-.8c.1-.9-.6-2.1-.6-2.1s1.1-.5 1.6.8 2.2 5.9 3.1 8c1 2.1 1.8 8.4-1.9 8.3-3.7-.2-5.2-3.2-6.4-6.2-1.2-3-1.8-4.4-2.2-5.9-.4-1.5-.2-2.3-.2-2.3s1.1 2.4 2.4 2z"/><path fill="#C4B8B3" d="M588.5 341.2s1 0 1.7-.2c.7-.3 1.5-1 1.5-1s1.9 4.7 2.2 5.6c.4.9.4 1.1.4 1.1s-2 1.2-2.8 1.2c-.9-.1-3-6.7-3-6.7zm-31.9 51.7l-1.4-1.2s-.2 2.1 1 3.5c1.1 1.5 4.4 5 10.2 4.7 5.7-.3 6.7-3.2 6.7-3.2l-.6-1.6-15.9-2.2z"/><path fill="#BE1E2D" d="M558.8 389.3c2.2-.5 1.9-.1 1.4-2-.3-1.1-1.8-.9-1-2.1 2.2-3.1 6-2.4 6.8.2.8 2.6.9 3 .9 3s1 4 3.4 4.4c2.4.3 2.4 2.5 2.4 2.5s-2.8 4.5-8.3 3.2c-5.5-1.3-9.2-5.5-9.2-6.9 0-1.4.1-3.4.6-4.2.5-.7.8 2.4 3 1.9z"/><path fill="#C4B8B3" d="M562.4 389.2s2.3-.7 2.9-.7c.6 0 1.1 3.6 3.8 4.6 0 0-2.2 1-2.5 1-.3 0-4.7-1.8-4.2-4.9z"/><path fill="#603913" d="M545.7 229.8s-4-4.9-4.9-12.7c-.8-7.8 2-6.6 2-6.6s-.4-4.3 4.6-6.7c5-2.4 12.8-3.4 18.3 2.3 5.5 5.7 6.9 5.3 6.9 5.3s-.5 5.8-4.2 9.3c-3.6 3.4-16.8 10.3-22.7 9.1z"/><path fill="#FFD779" d="M547.8 215.8s5.7 5.7 12.9 4.2c7.3-1.4 8.3-5.5 8.3-5.5s-1 23.3-6.7 26.9-11.9-1.6-13.5-7.5c0 0-4.7 2-5.9-4.7-1.2-6.7 3.6-3 3.6-3l1 2.6 1.6-1.4c.1.1-2.6-2.7-1.3-11.6z"/><path fill="#DE7B28" d="M539.9 275.9c-1.3-2.2-2.8-4.8-4.6-8.1-7.2-13.4-7.3-20.5-6.5-23.7-3.1 1.8-5.3 6.6-2.6 14.1 4 11.3 8.4 19.7 8.4 19.7s2.2-.5 5.3-2z"/><path fill="#A4A6B7" d="M682.3 236.9c0-1.1-.9-2-2-2l-21.1.3c.3 1.5.4 2.8.2 4l21-.3c1 0 1.9-.9 1.9-2z"/><path fill="#F7941E" d="M609.7 323.9c0-1.5-1.2-2.8-2.7-2.8l-30.4-.4c-1.5 0-2.7-1.3-2.7-2.8 0-1.5 1.3-2.7 2.8-2.7l17.5.2c1.5 0 2.8-1.2 2.8-2.7 0-1.5-1.2-2.8-2.7-2.8l-36.6-.4c0 .8-.1 1.6-.4 2.4.1.1.1.2.2.3.8 1.4 1.7 2.8 2.6 4.1.1.1 1.1 1.5 1.2 1.6.5.7 1 1.4 1.6 2.1.9 1.2 1.9 2.5 2.6 3.8.4.7.6 1.5.8 2.2l40.8.5c1.4.2 2.6-1.1 2.6-2.6z"/><path fill="#E0761D" d="M624.2 267.1c0-1.5-1.2-2.8-2.7-2.8l-38.6-.4c-1.5 0-2.7-1.3-2.7-2.8 0-1.5 1.3-2.7 2.8-2.7l25.7.1c1.5 0 2.8-1.2 2.8-2.7 0-1.5-1.2-2.8-2.7-2.8l-36.6-.8c0 .8-.1 1.6-.5 2.4.1.1.1.2.2.3.8 1.4-.9 1.1.1 2.4.1.1-.3 1.4-.2 1.6.5.7-1.6.1-1.1.8.9 1.2-.5 2.1.1 3.5.4.7-5.1 4.7-5 5.4l55.5 1c1.6.2 2.9-1 2.9-2.5z"/><path fill="#FFD779" d="M583.3 360.8c-.1 1.1-1.2 1.9-2.5 1.8l-25.9-1.5c.4-1.6.3-3.3 0-4.9-.1-.6-.3-1.3-.4-2-.1-.8-.1-1.5-.1-2.3l7.1.4 5 .3 3.7.2c1.2.1 2.1.9 2 1.9 0 .8-.8 1.5-1.7 1.6h-1c-.5 0-1 .3-1 .7 0 .4.4.8.9.8l11.6.7c1.4.3 2.4 1.2 2.3 2.3z"/><circle fill="#F7941E" cx="623.6" cy="320.8" r="2.4"/><path fill="#603913" d="M557.6 207.1l23.6-1.1c1.1-.1 2 .8 2.1 1.9.1 1.1-.8 2-1.9 2.1l-23.8 1.1v-4z"/><path fill="#98D09F" d="M1072.5 357.9h23.1v172.7h-23.1zm-771.4 0h23.1v172.7h-23.1z"/><path fill="#98D09F" d="M324.2 366.7h748.3v13.2H324.2zm0 146.9h748.3v5H324.2z"/><g fill="#C9E19E"><path d="M324.2 390.9h748.3v1.9H324.2zm0 13.6h748.3v1.9H324.2zm0 13.6h748.3v1.9H324.2zm0 13.7h748.3v1.9H324.2zm0 13.6h748.3v1.9H324.2zm0 13.6h748.3v1.9H324.2zm0 13.6h748.3v1.9H324.2zm0 13.7h748.3v1.9H324.2zm0 13.6h748.3v1.9H324.2z"/><path d="M444.8 379.9h1.9v133.7h-1.9zm-13.6 0h1.9v133.7h-1.9zm-13.6 0h1.9v133.7h-1.9zm-13.7 0h1.9v133.7h-1.9zm-13.6 0h1.9v133.7h-1.9zm-13.6 0h1.9v133.7h-1.9zm-13.6 0h1.9v133.7h-1.9zm-13.7 0h1.9v133.7h-1.9zm-13.6 0h1.9v133.7h-1.9zm232 0h1.9v133.7h-1.9zm-13.6 0h1.9v133.7h-1.9zm-13.6 0h1.9v133.7h-1.9zm-13.6 0h1.9v133.7H527zm-13.7 0h1.9v133.7h-1.9zm-13.6 0h1.9v133.7h-1.9zm-13.6 0h1.9v133.7h-1.9zm-13.7 0h1.9v133.7h-1.9zm-13.6 0h1.9v133.7h-1.9zm232.1 0h1.9v133.7h-1.9zm-13.7 0h1.9v133.7h-1.9zm-13.6 0h1.9v133.7h-1.9zm-13.6 0h1.9v133.7H650zm-13.7 0h1.9v133.7h-1.9zm-13.6 0h1.9v133.7h-1.9zm-13.6 0h1.9v133.7h-1.9zm-13.6 0h1.9v133.7h-1.9zm-13.7 0h1.9v133.7h-1.9zm232.1 0h1.9v133.7h-1.9zm-13.7 0h1.9v133.7h-1.9zm-13.6 0h1.9v133.7h-1.9zm-13.6 0h1.9v133.7H773zm-13.6 0h1.9v133.7h-1.9zm-13.7 0h1.9v133.7h-1.9zm-13.6 0h1.9v133.7h-1.9zm-13.6 0h1.9v133.7h-1.9zm-13.7 0h1.9v133.7h-1.9zm232.1 0h1.9v133.7h-1.9zm-13.6 0h1.9v133.7h-1.9zm-13.7 0h1.9v133.7h-1.9zm-13.6 0h1.9v133.7H896zm-13.6 0h1.9v133.7h-1.9zm-13.7 0h1.9v133.7h-1.9zm-13.6 0h1.9v133.7h-1.9zm-13.6 0h1.9v133.7h-1.9zm-13.6 0h1.9v133.7h-1.9zm232 0h1.9v133.7h-1.9zm-13.6 0h1.9v133.7h-1.9zm-13.7 0h1.9v133.7h-1.9zm-13.6 0h1.9v133.7h-1.9zm-13.6 0h1.9v133.7h-1.9zm-13.6 0h1.9v133.7h-1.9zm-13.7 0h1.9v133.7h-1.9zm-13.6 0h1.9v133.7h-1.9zm-13.6 0h1.9v133.7h-1.9z"/></g><path fill="#79A982" d="M324.2 366.7h3.8v13.2h-3.8zm0 146.9h3.8v5h-3.8zm744.4-146.9h3.8v13.2h-3.8zm0 146.9h3.8v5h-3.8z"/><path fill="#38AE5A" d="M1010.3 301.5h-53.7.3c-4.7-.1-8.4-3.3-8.4-7.2 0-3.9 3.7-7.1 8.4-7.2h-.3 21.5c6.9 0 12.5-4.7 12.5-10.4 0-5.8-5.6-10.4-12.5-10.4H815.4c-6.9 0-12.5 4.7-12.5 10.4 0 5.8 5.6 10.4 12.5 10.4h21.5-.3c4.7.1 8.4 3.3 8.4 7.2 0 3.9-3.7 7.1-8.4 7.2h2.7c-5.5.3-9.8 4.1-9.8 8.8 0 4.7 4.3 8.5 9.8 8.8h171c5.5-.3 9.8-4.1 9.8-8.8.1-4.7-4.3-8.5-9.8-8.8zM118.7 570.3c1.3.3 2.6.4 4 .4h136.6c8.2 0 14.9-5.6 14.9-12.4 0-6.9-6.7-12.4-14.9-12.4H208c-1.7-.5-2.9-1.9-2.9-3.5 0-2.1 2-3.8 4.5-3.8h-1.1c7.9 0 14.3-5.3 14.3-11.9 0-6.6-6.4-11.9-14.3-11.9h-66.8c-7.9 0-14.3 5.3-14.3 11.9 0 6.6 6.4 11.9 14.3 11.9h-18.5c-10.7 0-19.3 7.2-19.3 16.1 0 7.6 6.3 13.9 14.8 15.6zm91-31.7c-.1 0 0 0 0 0z"/><path d="M1217 598.3h34.1c6.1 0 11.1-4.1 11.1-9.2s-5-9.2-11.1-9.2H1217c-6.1 0-11.1 4.1-11.1 9.2s5 9.2 11.1 9.2zm-53 0h11.5c6.1 0 11.1-4.1 11.1-9.2s-5-9.2-11.1-9.2H1164c-6.1 0-11.1 4.1-11.1 9.2s5 9.2 11.1 9.2zM611.1 816.5h-99.9c-10.6 0-19.2 7.1-19.2 15.9s8.6 15.9 19.2 15.9h99.9c10.6 0 19.2-7.1 19.2-15.9-.1-8.7-8.6-15.9-19.2-15.9z" fill="#52BA66"/><path fill="#38AE5A" d="M354.2 624.8l7.7-17.4 8 11.4 9.4-26 6.6 25.5 9.7-12.6 5.5 19.1z"/><path fill="#52BA66" d="M320 297.2l-12.7-28.4L294 290l-9.6-10.5-5.5 17.7z"/><path fill="#9DDCF9" d="M771 777.7l9.5-21.4 9.8 14.1 9.5-12.3 10.2 11.6 11.9-15.5 6.7 23.5z"/><path fill="#2A914A" d="M896.9 649H571.1c-12.6 0-22.7 8.5-22.7 18.9 0 10.4 10.2 18.9 22.7 18.9h43.3c-11.2 1.2-19.9 9.1-19.9 18.7 0 10.4 10.2 18.9 22.7 18.9h208.6c12.6 0 22.7-8.5 22.7-18.9 0-9.6-8.7-17.6-19.9-18.7h68.2c12.6 0 22.7-8.5 22.7-18.9.1-10.4-10.1-18.9-22.6-18.9z"/><path fill="#FFD779" d="M823 516l-40.9-21.2c-1.6-.8-2.8-2.2-3.6-3.8l-16.8-38.5c-1.7-4 .1-8.6 4-10.3 3.9-1.7 8.6.1 10.3 4l15.7 36 38.5 19.9c3.8 2 5.3 6.7 3.3 10.5-1.4 2.7-4.1 4.2-6.9 4.2-1.2.1-2.4-.2-3.6-.8z"/><circle fill="#FFD779" cx="786.9" cy="398.2" r="22.4"/><path fill="#754C29" d="M796.2 414.2l5.9-8.8s-5.2 1.3-4.6-4.9c.7-6.2 6.5-6.5 6.8-2.3 0 0 6.2-3.9 3.6-13.7-2.6-9.8 3.3-13.7-13.3-19.2s-30 7.2-33.2 14l4.2-.7s-3.3 2-3.9 4.9c-.7 2.9-.7 5.2-.7 5.2l2.3-3.9s-2.9 8.5 0 16.6c2.9 8.1 4.9 10.7 4.9 10.7l28 2.1z"/><path fill="#1C75BC" d="M792.1 416.9l-3.2-10.3s-10-5.9-18.6-4.2c-8.5 1.7-9 3.2-9 3.2v4.9l30.8 6.4z"/><path fill="#FFD779" d="M772 664.1l-45.2-104.4c-1.7-4 .1-8.6 4.1-10.3 4-1.7 8.6.1 10.3 4.1l45.2 104.4c1.7 4-.1 8.6-4.1 10.3-1 .4-2.1.6-3.1.6-3 .1-5.9-1.7-7.2-4.7zm-117.7-53.4l-67.1-23.4c-4.1-1.4-6.2-5.9-4.8-10 1.4-4.1 5.9-6.2 10-4.8l59.8 20.9 15.6-43.5c1.5-4.1 5.9-6.2 10-4.7s6.2 5.9 4.7 10L664.2 606c-1.1 3.2-4.1 5.2-7.4 5.2-.8 0-1.7-.2-2.5-.5z"/><path fill="#A97C50" d="M713.9 537l-28.6 39.1s-24.7 2.7-28.8-14.2c-4.2-16.8 12.7-62.5 19-65.7 6.4-3.1 38.4 40.8 38.4 40.8z"/><path fill="#8B5E3C" d="M712.5 536.8c-2.8-4-31.9-13.2-34-13.9 1.5 1.3 10.4 28.5 10.4 28.5l-10.5 21.5s-7.7-.2-13.4-.3c8.7 4.8 20.5 3.5 20.5 3.5l27.7-37.9c-.3-.6-.5-1.1-.7-1.4z"/><path fill="#A97C50" d="M677.1 494.5s-4.4 3.4-5.9 15.1 46.4 70.8 46.4 70.8 20.5 7.1 38.6-9l-10.7-55.9-68.4-21z"/><path fill="#8B5E3C" d="M745.4 515.5l-39-12c-14.5.8-27.9 1.7-27.9 1.7s7.1 15.6 42.2 24.4l22.5 42.7s-3.3 5.7-18 9.5c7.6.6 19.7-.5 30.9-10.4l-10.7-55.9z"/><path fill="#87C2EA" d="M678.4 488.4s67.9-74.1 83.8-79.4c15.9-5.3 49.1 8.7 55.4 13.5 6.3 4.8-62.6 92.9-72.7 98.7-10.1 5.8-25 3.9-43.3-2.4-18.4-6.3-35.3-16.4-23.2-30.4z"/><path fill="#FCBB72" d="M933.3 431.4c-1.5-1.6-1.4-4.1.2-5.5l6.6-6.1c1.6-1.5 4.1-1.4 5.5.2 1.5 1.6 1.4 4.1-.2 5.5l-6.6 6.1c-.8.7-1.7 1-2.7 1-1 0-2-.4-2.8-1.2z"/><path fill="#A4A6B7" d="M990.5 410.6l46.3-.3c2.5 0 4.5-2.1 4.5-4.5 0-2.5-2-4.5-4.6-4.5l-35.4.2 11.4-11.6c1.8-1.8 1.7-4.6-.1-6.4-1.8-1.8-4.6-1.7-6.4 0l-19 19.4c-1.3 1.3-1.7 3.2-.9 4.9.7 1.7 2.4 2.8 4.2 2.8z"/><path fill="#A4A6B7" d="M1054.8 406.8c-20.6 7.8-41.7 2.7-47.1-11.4-5.4-14.1 7-31.9 27.6-39.8 20.6-7.8 41.7-2.8 47 11.4 5.4 14.2-6.9 32-27.5 39.8z"/><path fill="#868C90" d="M1083.3 370.7c-.1 12.3-10.9 25.9-27.6 33-20.3 8.6-41.5 4.3-47.5-9.6-1.3-3.2-1.7-6.6-1.4-10-.8 3.9-.6 7.7.8 11.3 5.4 14.1 26.4 19.2 47.1 11.4 18.9-7.1 30.8-22.7 28.6-36.1z"/><path fill="#C2C6CA" d="M1053.5 401.4c-17.9 6.5-36.1 2.3-40.8-9.4-4.7-11.7 6-26.5 23.9-33 17.8-6.5 36.1-2.3 40.7 9.4 4.7 11.7-6 26.5-23.8 33z"/><path fill="#868C90" d="M1037.4 360.9c17.2-6.3 34.8-2.5 40.2 8.3-.1-.3-.1-.5-.2-.8-4.7-11.7-22.9-16-40.7-9.4-17.9 6.5-28.5 21.3-23.9 33l.6 1.2c-4-11.7 6.5-26 24-32.3z"/><path fill="#A4A6B7" d="M925.2 435.6c-.5-1.2 0-2.6 1.2-3.2l63.1-28.5c1.2-.5 2.6 0 3.2 1.2.5 1.2 0 2.6-1.2 3.2l-63.1 28.5c-.3.1-.7.2-1 .2-1 0-1.8-.5-2.2-1.4z"/><path fill="#F7941E" d="M926.4 432.4l25.2-11.4c.7.9 1.6 2.4 1.6 4.6l-24.8 11.2c-.3.1-.7.2-1 .2-.9 0-1.8-.5-2.2-1.4-.6-1.2-.1-2.7 1.2-3.2z"/><path fill="#FFD779" d="M869.7 451.4l-35.6-5.8c-4.3-.7-7.2-4.7-6.5-9 .7-4.3 4.7-7.2 9-6.5l34.3 5.6 74.7-13.7c4.2-.8 8.3 2 9.1 6.3.8 4.2-2 8.3-6.3 9.1l-76.1 14c-.5.1-.9.1-1.4.1-.4 0-.8-.1-1.2-.1z"/><path fill="#87C2EA" d="M795.3 415.2l54.4 9.1s5.8 35.6-13.5 41.9l-43.8-14.9 2.9-36.1z"/><path fill="#68A5CC" d="M801.3 439.8s-4.9-1.2-4.9-10.3c0-9 4.9-10.5 4.9-10.5s-7.6-1.5-10.3 9c-2.7 10.5-.2 15.6-.2 15.6l-65.7 77.9-5 2.1c9.9 1.7 18.3 1.1 24.7-2.6 6.3-3.6 35.8-39.6 55.3-67.2l36.1 12.3c7.6-2.5 11.3-9.4 13-17l-47.9-9.3z"/><path fill="#68A5CC" d="M738.3 511.4s-7.6 3.7-28.1.5-28.8-17.6-28.8-17.6 3.7 13.4 18.6 18.3c14.9 4.9 31.3 6.1 31.3 6.1l7-7.3z"/><path fill="#D4D3CE" d="M609.3 578.5l-16.9-5.9c-4.1-1.4-8.5.7-10 4.8-1.4 4.1.7 8.5 4.8 10l18.7 6.5c2.7-4.6 3.4-10.9 3.4-15.4zm177.1 79.4l-5.9-13.6c-7.6.3-12.2 3.9-14.4 6.1l5.9 13.7c1.3 2.9 4.2 4.7 7.2 4.7 1 0 2.1-.2 3.1-.6 4-1.7 5.8-6.3 4.1-10.3z"/><path fill="#BE1E2D" d="M585.6 614l-.3 2.5 4.4.8 4.2-4.2s-1.9-10.6 2.5-14.2c4.4-3.6 7.2 2.2 10.3.8 3.1-1.4 5.3-8.1.6-9.2-4.7-1.1-3.6-.8-3.6-.8s1.4-6.4-1.4-14.2c-2.8-7.8-19.7-16.1-23.1-14.7-3.4 1.6 6.4 53.2 6.4 53.2z"/><path fill="#D4D3CE" d="M579.2 561c-3.3 1.4 6.4 53.1 6.4 53.1l-.3 2.5 4.4.8 3.7-3.7c-.6-2.3-.9-6.3-.4-13 1.4-16.1-5.8-28.3-5.8-28.3 1.6-3.8.9-7.1-.2-9.4-3.5-1.7-6.6-2.5-7.8-2z"/><path fill="#A97C50" d="M591.1 612.6s-4.7 3.9-5.8 3.9c-1.1 0-8.6-3.1-11.9-17.2-3.3-14.2 1.1-23.3 1.1-23.3l-1.7-1.1s-2.2-9.7 5.3-13.3c7.5-3.6 5.6 11.4 5.6 11.4l1.1 1.7s4.2 13.1 4.7 24.2c.5 11 1.6 13.7 1.6 13.7z"/><path fill="#D4D3CE" d="M777.2 684.3l-1.2 2.2s1.5 3.4 4.6 4.2c3.2.7 11.5-2.9 16.6-5.9 5.1-2.9 7.6-5.6 16.1-8.3 8.5-2.7 13.7-9.5 15.1-16.1l-2-2-11.5 7.1s-12.9 9-14.9 9.3c-1.8.2-22.8 9.5-22.8 9.5z"/><path fill="#BE1E2D" d="M769.6 664.5l2.4-1.2s1.7-.5 7.8-1.5 6.8-7.3 6.8-7.3-2.7-1.5-4.6-3.4c-2-2-.2-5.1 4.2-5.1s6.3 9.8 6.3 9.8 11.2 7.6 20 5.1c8.8-2.4 9-5.1 9-5.1l4.9 2.7s-4.2 10-12.9 13.7c-8.8 3.7-14.4 3.2-18.3 6.6l-3.9 3.4s-9.8 4.9-13.9 4.6c-4.2-.2-8.8-11.2-9-14.9-.3-3.7-1.7-5.9 1.2-7.4z"/><path fill="#754C29" d="M780.1 383.4l-68.5-3.2c-1.8-.1-3.4 1.3-3.5 3.2-.1 1.8 1.3 3.4 3.2 3.5l68.5 3.2c1.8.1 3.4-1.3 3.5-3.2.1-1.9-1.3-3.4-3.2-3.5z"/><path fill="#A4A6B7" d="M1000.9 391.4l-43.6-.7c-1.8 0-3.4 1.4-3.4 3.3 0 1.8 1.4 3.4 3.3 3.4l43.6.7c1.8 0 3.4-1.4 3.4-3.3 0-1.8-1.4-3.3-3.3-3.4z"/><path fill="#BE1E2D" d="M552.6 576.4c0-1.8 1.5-3.3 3.4-3.3l35.3.6c-.6 2.4-.7 4.6-.4 6.7l-35-.5c-1.9-.1-3.3-1.6-3.3-3.5z"/><path fill="#FFD779" d="M890.3 427.4c0-1.8 1.5-3.3 3.4-3.3l35.3.6c-.6 2.4-.7 4.6-.4 6.7l-35-.5c-1.9-.2-3.3-1.7-3.3-3.5z"/><path fill="#A97C50" d="M587.9 541c.2-2.5 2.4-4.4 4.9-4.2l50.5 4.3c2.5.2 4.7-1.6 4.9-4.2.2-2.5-1.6-4.7-4.2-4.9l-29-2.5c-2.5-.2-4.4-2.4-4.2-4.9.2-2.5 2.4-4.4 4.9-4.2l60.8 5.2c-.2 1.3-.1 2.7.3 4.1-.1.2-.2.3-.3.5-1.6 2.2-3.2 4.3-5 6.4-.2.2-2 2.2-2.3 2.5-1 1.1-2 2.1-2.9 3.2-1.7 1.9-3.6 3.8-5 5.9-.8 1.2-1.3 2.3-1.6 3.5l-67.8-5.8c-2.3-.1-4.2-2.3-4-4.9z"/><path fill="#87C2EA" d="M622.6 482.8c-.1-2.5 1.9-4.6 4.5-4.7l64.5-.7c2.5-.1 4.5-2.1 4.5-4.7-.1-2.5-2.1-4.5-4.7-4.5l-43 .2c-2.5.1-4.6-1.9-4.7-4.5-.1-2.5 1.9-4.6 4.5-4.7l61-1.3c0 1.3.2 2.7.8 4.1-.1.2-.2.4-.3.5-1.3 2.4 1.4 1.9-.1 4.1-.2.2.5 2.4.3 2.6-.9 1.2 2.6.2 1.8 1.3-1.5 2.1.9 3.5-.2 5.8-.6 1.2 8.6 7.8 8.4 9l-92.5 1.7c-2.7.3-4.8-1.7-4.8-4.2z"/><path fill="#FFD779" d="M713.5 622.9c-.1 1.8 1.5 3.4 3.7 3.6l43.2 3.4c-.3-2.7.3-5.5 1.1-8.1.3-1 .7-2.1 1.1-3.1.3-1.2.5-2.5.7-3.7l-11.9-.9-8.3-.7-6.1-.5c-2-.2-3.7 1-3.8 2.7-.1 1.4 1 2.7 2.5 3.1.2.1.5.1.7.1l.9.1c.9.1 1.5.7 1.5 1.4s-.8 1.2-1.7 1.2l-19.3-1.5c-2.3-.2-4.2 1.1-4.3 2.9z"/><circle fill="#87C2EA" cx="628.7" cy="465" r="4.1"/><circle fill="#52BA66" cx="672.8" cy="832" r="15.5"/><path fill="#BED73B" d="M1099.6 809.7c-35.1 44.5-99.6 52.1-144.1 17.1-44.5-35.1-52.2-99.6-17.1-144.1s99.6-52.1 144.1-17.1c44.5 35.1 52.2 99.6 17.1 144.1z"/><path fill="#9CB230" d="M1118.2 720.2c-.5 21.6-7.6 43.1-21.9 61.3-35.1 44.6-99.6 52.2-144.1 17.1-18.2-14.3-30.2-33.7-35.6-54.5-.6 31 12.7 62 39 82.7 44.5 35.1 109 27.5 144.1-17.1 20.6-26.2 26.3-59.5 18.5-89.5z"/><path fill="#FFF" d="M1052.8 772.8c17.4-22.1 42.3-34.7 68.2-37.3-.3-2.2-.6-4.4-1-6.6-27.5 2.8-54 16.3-72.5 39.7-18.5 23.4-25.4 52.3-21.7 79.7 2.2-.1 4.4-.3 6.7-.6-3.5-25.7 2.9-52.8 20.3-74.9zm-47.4-128.2c3.6 25.8-2.8 52.9-20.2 75s-42.3 34.7-68.2 37.2c.2 2.3.6 4.5 1 6.7 27.6-2.8 53.9-16.3 72.5-39.7 18.4-23.5 25.4-52.3 21.7-79.8-2.3.1-4.5.2-6.8.6z"/><path fill="#BED73B" d="M1086.9 552.9c5.7 0 10.3 5.5 10.4 12.3l.9 135.6c-8.4-1.5-17.1-.4-25.6 1.6-3.3.8-6.7 1.8-10 2.6-3.9.5-7.8 1-11.8 1.3l-.3-37.3-.2-26.2-.1-19.3c0-6.2 4.1-11.2 9.2-11.3 4.4 0 8.1 3.6 9.1 8.5.2.7.3 1.5.3 2.3v3c0 2.7 1.9 4.9 4.1 4.9 2.3 0 4.1-2.2 4.1-5l-.4-60.6c0-6.8 4.6-12.4 10.3-12.4z"/><circle fill="#BED73B" cx="1057.4" cy="590.7" r="8.5"/><g fill="#FFF"><path d="M943.6 754.5l-.8-94.2c0-2.5-2.1-4.4-4.5-4.4-2.5 0-4.4 2.1-4.4 4.5l.8 93.8c2.7-.4 5.7-.4 8.9.3z"/><circle cx="938.8" cy="640.2" r="4.9"/></g><path fill="#9CB230" d="M1012.5 830.1c-.2-33.8.2-83.4.4-104.4 0-3.4-2.7-6.1-6.1-6.1-3.4 0-6.1 2.7-6.1 6.1l-1.3 57.3c0 3.4-2.8 6.1-6.1 6.1-3.4 0-6.1-2.8-6.1-6.1l1.5-86c0-3.4-2.7-6.1-6.1-6.1-3.4 0-6.1 2.7-6.1 6.1l-2.8 123.3 38.8 9.8z"/><path d="M872.1 583c-11.9 1.8-13.4 3.2-15.1 15.1-1.8-11.9-3.2-13.4-15.1-15.1 11.9-1.8 13.4-3.2 15.1-15.1 1.8 11.9 3.2 13.3 15.1 15.1zm83.4-197.1c-9.1 1.4-10.2 2.5-11.6 11.6-1.4-9.1-2.5-10.2-11.6-11.6 9.1-1.4 10.2-2.5 11.6-11.6 1.3 9.1 2.4 10.2 11.6 11.6zm49.9 100.4c-9.1 1.4-10.2 2.5-11.6 11.6-1.4-9.1-2.5-10.2-11.6-11.6 9.1-1.4 10.2-2.5 11.6-11.6 1.4 9.1 2.5 10.2 11.6 11.6zM737.7 221.8c-9.1 1.4-10.2 2.5-11.6 11.6-1.4-9.1-2.5-10.2-11.6-11.6 9.1-1.4 10.2-2.5 11.6-11.6 1.4 9.2 2.5 10.3 11.6 11.6zm-54-32.9c-7.4 1.1-8.2 2-9.3 9.3-1.1-7.4-2-8.2-9.3-9.3 7.4-1.1 8.2-2 9.3-9.3 1 7.3 1.9 8.2 9.3 9.3zM470 221.8c-7.4 1.1-8.2 2-9.3 9.3-1.1-7.4-2-8.2-9.3-9.3 7.4-1.1 8.2-2 9.3-9.3 1.1 7.3 2 8.2 9.3 9.3zm181.9 80c-7.4 1.1-8.2 2-9.3 9.3-1.1-7.4-2-8.2-9.3-9.3 7.4-1.1 8.2-2 9.3-9.3 1 7.3 1.9 8.2 9.3 9.3z" fill="#EEF4D4"/><path d="M1183.4 295c-.7 0-1.4.1-2.1.2-1.2-7.1-7.3-12.5-14.7-12.5-1.1 0-2.2.1-3.3.4-1.1-8-8-14.3-16.3-14.3-5.5 0-10.4 2.7-13.4 6.9-1.4-.8-3.1-1.3-4.9-1.3-2.2 0-4.2.7-5.8 2-1.6-4-5.4-6.8-10-6.8-2 0-3.9.6-5.5 1.5-2.6-5.7-8.4-9.7-15.1-9.7-9.2 0-16.6 7.4-16.6 16.6 0 1.6.2 3.2.7 4.7-1.2.1-2.3.4-3.4.8-2.2-1.2-4.8-1.8-7.5-1.8h-.2c-.3-12.4-10.4-22.4-22.9-22.4-4 0-7.8 1-11.1 2.9-.4-5.5-4.9-9.8-10.5-9.8-.8 0-1.6.1-2.3.3-2.8-9.1-11.3-15.7-21.4-15.7-10.7 0-19.7 7.5-21.9 17.6-2.6-1.4-5.6-2.2-8.7-2.2-10.2 0-18.5 8.3-18.5 18.5 0 1.3.1 2.5.4 3.7-.6-.1-1.1-.1-1.7-.1-6.4 0-11.6 5.2-11.6 11.6 0 .4 0 .8.1 1.2-8.2.6-14.7 7-15.5 15.1h273c-.9-4.2-4.7-7.4-9.3-7.4zM950.7 179.7c-.9-1.7-2.3-3.2-4-4.2.3-1.2.5-2.4.5-3.7 0-7.9-6-14.3-13.7-15.1.5-1.8.8-3.7.8-5.6 0-11-8.9-19.9-19.9-19.9-8 0-14.9 4.7-18 11.6-1.9-1.1-4.2-1.8-6.5-1.8-5.4 0-10 3.4-11.9 8.1-1.9-1.5-4.3-2.4-6.9-2.4-2.1 0-4.1.6-5.8 1.6-3.6-5-9.4-8.3-16.1-8.3-10 0-18.2 7.4-19.5 17-1.3-.3-2.6-.4-3.9-.4-8.8 0-16.2 6.5-17.6 14.9-.8-.2-1.6-.3-2.5-.3-5.2 0-9.6 3.6-10.9 8.4h155.9zM325.6 328.1c-1.3 0-2.5.2-3.7.4-1.2-9.1-9-16.1-18.4-16.1-6.2 0-11.8 3.1-15.1 7.8-1.6-1-3.5-1.5-5.5-1.5-2.5 0-4.7.8-6.5 2.2-1.8-4.5-6.1-7.6-11.2-7.6-2.3 0-4.4.6-6.2 1.7-3-6.4-9.5-10.9-17-10.9-8.6 0-15.8 5.8-18 13.6-3.3-3.3-7.9-5.3-13-5.3-6.2 0-11.8 3.1-15.1 7.8-1.6-1-3.5-1.5-5.5-1.5-2.5 0-4.7.8-6.5 2.2-1.8-4.5-6.1-7.6-11.2-7.6-2.3 0-4.4.6-6.2 1.7-3-6.4-9.5-10.9-17-10.9-10.3 0-18.7 8.4-18.7 18.7 0 1.8.3 3.6.8 5.3-6.9.7-12.3 6.3-12.8 13.2h223.3c-1.8-7.5-8.5-13.2-16.5-13.2z" fill="#FFF"/></svg>